<mxfile host="65bd71144e">
    <diagram id="g93cMVZMgnvICc8ODvyr" name="Page-1">
        <mxGraphModel dx="641" dy="470" grid="1" gridSize="10" guides="1" tooltips="1" connect="1" arrows="1" fold="1" page="1" pageScale="1" pageWidth="850" pageHeight="1100" math="0" shadow="0">
            <root>
                <mxCell id="0"/>
                <mxCell id="1" parent="0"/>
                <mxCell id="2" value="&lt;font color=&quot;#000000&quot;&gt;Internet&lt;br&gt;192.168.1.1&lt;br&gt;&lt;/font&gt;" style="html=1;outlineConnect=0;fillColor=#CCCCCC;strokeColor=#6881B3;gradientColor=none;gradientDirection=north;strokeWidth=2;shape=mxgraph.networks.cloud;fontColor=#ffffff;" vertex="1" parent="1">
                    <mxGeometry x="170" y="90" width="90" height="50" as="geometry"/>
                </mxCell>
                <mxCell id="3" value="Windows 10&lt;br&gt;192.168.101" style="fontColor=#0066CC;verticalAlign=top;verticalLabelPosition=bottom;labelPosition=center;align=center;html=1;outlineConnect=0;fillColor=#CCCCCC;strokeColor=#6881B3;gradientColor=none;gradientDirection=north;strokeWidth=2;shape=mxgraph.networks.pc;" vertex="1" parent="1">
                    <mxGeometry x="170" y="260" width="100" height="70" as="geometry"/>
                </mxCell>
                <mxCell id="4" value="&lt;font color=&quot;#2652ff&quot;&gt;Pfsense 192.168.1.101-192.168.1.200&lt;/font&gt;" style="fontColor=#000000;verticalAlign=top;verticalLabelPosition=bottom;labelPosition=center;align=center;html=1;outlineConnect=0;fillColor=#CCCCCC;strokeColor=#6881B3;gradientColor=none;gradientDirection=north;strokeWidth=2;shape=mxgraph.networks.firewall;" vertex="1" parent="1">
                    <mxGeometry x="400" y="130" width="100" height="100" as="geometry"/>
                </mxCell>
                <mxCell id="6" value="" style="endArrow=classic;html=1;fontColor=#2652FF;" edge="1" parent="1">
                    <mxGeometry width="50" height="50" relative="1" as="geometry">
                        <mxPoint x="290" y="120" as="sourcePoint"/>
                        <mxPoint x="360" y="170" as="targetPoint"/>
                    </mxGeometry>
                </mxCell>
                <mxCell id="7" value="" style="endArrow=classic;html=1;fontColor=#2652FF;entryX=1;entryY=0.5;entryDx=0;entryDy=0;entryPerimeter=0;" edge="1" parent="1" target="3">
                    <mxGeometry width="50" height="50" relative="1" as="geometry">
                        <mxPoint x="390" y="260" as="sourcePoint"/>
                        <mxPoint x="360" y="210" as="targetPoint"/>
                        <Array as="points"/>
                    </mxGeometry>
                </mxCell>
            </root>
        </mxGraphModel>
    </diagram>
</mxfile>